<mxfile host="app.diagrams.net" agent="Mozilla/5.0 (Windows NT 10.0; Win64; x64) AppleWebKit/537.36 (KHTML, like Gecko) Chrome/128.0.0.0 Safari/537.36" version="24.7.8">
  <diagram name="Trang-1" id="qoCtclmnTIg2j6k5t8bk">
    <mxGraphModel dx="683" dy="368" grid="1" gridSize="10" guides="1" tooltips="1" connect="1" arrows="1" fold="1" page="1" pageScale="1" pageWidth="1169" pageHeight="827" math="0" shadow="0">
      <root>
        <mxCell id="0" />
        <mxCell id="1" parent="0" />
        <mxCell id="uIA3f5lFU4NiKborHUn9-1" style="edgeStyle=orthogonalEdgeStyle;rounded=0;orthogonalLoop=1;jettySize=auto;html=1;entryX=0;entryY=0.5;entryDx=0;entryDy=0;" parent="1" source="frMeNEFfwjuMo3mBpww0-1" target="frMeNEFfwjuMo3mBpww0-39" edge="1">
          <mxGeometry relative="1" as="geometry">
            <Array as="points">
              <mxPoint x="940" y="260" />
              <mxPoint x="940" y="85" />
            </Array>
          </mxGeometry>
        </mxCell>
        <mxCell id="uIA3f5lFU4NiKborHUn9-2" value="Doanh số&amp;nbsp;&lt;div&gt;chi&lt;/div&gt;" style="edgeLabel;html=1;align=center;verticalAlign=middle;resizable=0;points=[];" parent="uIA3f5lFU4NiKborHUn9-1" vertex="1" connectable="0">
          <mxGeometry x="0.0396" y="-2" relative="1" as="geometry">
            <mxPoint y="7" as="offset" />
          </mxGeometry>
        </mxCell>
        <mxCell id="frMeNEFfwjuMo3mBpww0-1" value="1" style="swimlane;fontStyle=1;childLayout=stackLayout;horizontal=1;startSize=20;fillColor=#ffffff;horizontalStack=0;resizeParent=1;resizeParentMax=0;resizeLast=0;collapsible=0;marginBottom=0;swimlaneFillColor=#ffffff;rounded=1;fontSize=13;" parent="1" vertex="1">
          <mxGeometry x="980" y="250.02" width="100" height="110" as="geometry" />
        </mxCell>
        <mxCell id="frMeNEFfwjuMo3mBpww0-2" value="&lt;b&gt;&lt;font style=&quot;font-size: 13px;&quot;&gt;Quản lý hàng hóa&lt;/font&gt;&lt;/b&gt;" style="text;html=1;align=center;verticalAlign=middle;whiteSpace=wrap;rounded=1;" parent="frMeNEFfwjuMo3mBpww0-1" vertex="1">
          <mxGeometry y="20" width="100" height="90" as="geometry" />
        </mxCell>
        <mxCell id="frMeNEFfwjuMo3mBpww0-35" style="edgeStyle=orthogonalEdgeStyle;rounded=0;orthogonalLoop=1;jettySize=auto;html=1;" parent="1" source="frMeNEFfwjuMo3mBpww0-13" target="frMeNEFfwjuMo3mBpww0-25" edge="1">
          <mxGeometry relative="1" as="geometry">
            <Array as="points">
              <mxPoint x="420" y="170" />
            </Array>
          </mxGeometry>
        </mxCell>
        <mxCell id="frMeNEFfwjuMo3mBpww0-36" value="Hóa đơn" style="edgeLabel;html=1;align=center;verticalAlign=middle;resizable=0;points=[];" parent="frMeNEFfwjuMo3mBpww0-35" vertex="1" connectable="0">
          <mxGeometry x="0.4074" y="-8" relative="1" as="geometry">
            <mxPoint as="offset" />
          </mxGeometry>
        </mxCell>
        <mxCell id="2QfK-ii52q8--LfC2cZZ-3" style="edgeStyle=orthogonalEdgeStyle;rounded=0;orthogonalLoop=1;jettySize=auto;html=1;" parent="1" source="frMeNEFfwjuMo3mBpww0-13" target="frMeNEFfwjuMo3mBpww0-45" edge="1">
          <mxGeometry relative="1" as="geometry">
            <Array as="points">
              <mxPoint x="780" y="310" />
            </Array>
          </mxGeometry>
        </mxCell>
        <mxCell id="2QfK-ii52q8--LfC2cZZ-4" value="Cập nhật số lượng" style="edgeLabel;html=1;align=center;verticalAlign=middle;resizable=0;points=[];" parent="2QfK-ii52q8--LfC2cZZ-3" vertex="1" connectable="0">
          <mxGeometry x="-0.1373" y="1" relative="1" as="geometry">
            <mxPoint x="-44" y="-9" as="offset" />
          </mxGeometry>
        </mxCell>
        <mxCell id="frMeNEFfwjuMo3mBpww0-13" value="2" style="swimlane;fontStyle=1;childLayout=stackLayout;horizontal=1;startSize=20;fillColor=#ffffff;horizontalStack=0;resizeParent=1;resizeParentMax=0;resizeLast=0;collapsible=0;marginBottom=0;swimlaneFillColor=#ffffff;rounded=1;fontSize=13;" parent="1" vertex="1">
          <mxGeometry x="400" y="290" width="100" height="110" as="geometry" />
        </mxCell>
        <mxCell id="frMeNEFfwjuMo3mBpww0-14" value="&lt;b&gt;&lt;font style=&quot;font-size: 13px;&quot;&gt;Quản lý bán hàng&lt;/font&gt;&lt;/b&gt;" style="text;html=1;align=center;verticalAlign=middle;whiteSpace=wrap;rounded=1;" parent="frMeNEFfwjuMo3mBpww0-13" vertex="1">
          <mxGeometry y="20" width="100" height="90" as="geometry" />
        </mxCell>
        <mxCell id="frMeNEFfwjuMo3mBpww0-15" value="6" style="swimlane;fontStyle=1;childLayout=stackLayout;horizontal=1;startSize=20;fillColor=#ffffff;horizontalStack=0;resizeParent=1;resizeParentMax=0;resizeLast=0;collapsible=0;marginBottom=0;swimlaneFillColor=#ffffff;rounded=1;fontSize=13;" parent="1" vertex="1">
          <mxGeometry x="680" y="500" width="100" height="110" as="geometry" />
        </mxCell>
        <mxCell id="1NJ5WVEYGRyoX9_osyBo-12" value="&lt;b&gt;&lt;font style=&quot;font-size: 13px;&quot;&gt;Quản lý tài chính&lt;/font&gt;&lt;/b&gt;" style="text;html=1;align=center;verticalAlign=middle;whiteSpace=wrap;rounded=1;" parent="frMeNEFfwjuMo3mBpww0-15" vertex="1">
          <mxGeometry y="20" width="100" height="90" as="geometry" />
        </mxCell>
        <mxCell id="frMeNEFfwjuMo3mBpww0-94" style="edgeStyle=orthogonalEdgeStyle;rounded=0;orthogonalLoop=1;jettySize=auto;html=1;" parent="1" source="frMeNEFfwjuMo3mBpww0-17" target="frMeNEFfwjuMo3mBpww0-1" edge="1">
          <mxGeometry relative="1" as="geometry">
            <Array as="points">
              <mxPoint x="840" y="310" />
            </Array>
            <mxPoint x="1250" y="390.02" as="sourcePoint" />
          </mxGeometry>
        </mxCell>
        <mxCell id="frMeNEFfwjuMo3mBpww0-96" value="Hàng hóa" style="edgeLabel;html=1;align=center;verticalAlign=middle;resizable=0;points=[];" parent="frMeNEFfwjuMo3mBpww0-94" vertex="1" connectable="0">
          <mxGeometry x="0.0608" y="-8" relative="1" as="geometry">
            <mxPoint x="36" y="-18" as="offset" />
          </mxGeometry>
        </mxCell>
        <mxCell id="frMeNEFfwjuMo3mBpww0-17" value="5" style="swimlane;fontStyle=1;childLayout=stackLayout;horizontal=1;startSize=20;fillColor=#ffffff;horizontalStack=0;resizeParent=1;resizeParentMax=0;resizeLast=0;collapsible=0;marginBottom=0;swimlaneFillColor=#ffffff;rounded=1;fontSize=13;" parent="1" vertex="1">
          <mxGeometry x="797.5" y="132.5" width="100" height="110" as="geometry" />
        </mxCell>
        <mxCell id="frMeNEFfwjuMo3mBpww0-18" value="&lt;b&gt;&lt;font style=&quot;font-size: 13px;&quot;&gt;Quản lý nhà cung cấp&lt;/font&gt;&lt;/b&gt;" style="text;html=1;align=center;verticalAlign=middle;whiteSpace=wrap;rounded=1;" parent="frMeNEFfwjuMo3mBpww0-17" vertex="1">
          <mxGeometry y="20" width="100" height="90" as="geometry" />
        </mxCell>
        <mxCell id="6pDtSbzWZjow2PwJmfd2-18" style="edgeStyle=orthogonalEdgeStyle;rounded=0;orthogonalLoop=1;jettySize=auto;html=1;" parent="1" source="frMeNEFfwjuMo3mBpww0-19" target="frMeNEFfwjuMo3mBpww0-26" edge="1">
          <mxGeometry relative="1" as="geometry">
            <Array as="points">
              <mxPoint x="30" y="390" />
            </Array>
          </mxGeometry>
        </mxCell>
        <mxCell id="nWM1yLNaq_5bOoscvzO5-6" value="Cập nhật lịch sử, điểm thưởng" style="edgeLabel;html=1;align=center;verticalAlign=middle;resizable=0;points=[];" parent="6pDtSbzWZjow2PwJmfd2-18" vertex="1" connectable="0">
          <mxGeometry x="-0.1458" relative="1" as="geometry">
            <mxPoint x="27" y="-8" as="offset" />
          </mxGeometry>
        </mxCell>
        <mxCell id="nWM1yLNaq_5bOoscvzO5-3" style="edgeStyle=orthogonalEdgeStyle;rounded=0;orthogonalLoop=1;jettySize=auto;html=1;" parent="1" source="frMeNEFfwjuMo3mBpww0-19" target="frMeNEFfwjuMo3mBpww0-25" edge="1">
          <mxGeometry relative="1" as="geometry">
            <Array as="points">
              <mxPoint x="270" y="230" />
              <mxPoint x="270" y="230" />
            </Array>
          </mxGeometry>
        </mxCell>
        <mxCell id="nWM1yLNaq_5bOoscvzO5-5" value="Gửi chương&lt;div&gt;trình khuyến mãi&lt;/div&gt;" style="edgeLabel;html=1;align=center;verticalAlign=middle;resizable=0;points=[];" parent="nWM1yLNaq_5bOoscvzO5-3" vertex="1" connectable="0">
          <mxGeometry x="-0.0212" y="1" relative="1" as="geometry">
            <mxPoint as="offset" />
          </mxGeometry>
        </mxCell>
        <mxCell id="2QfK-ii52q8--LfC2cZZ-14" style="edgeStyle=orthogonalEdgeStyle;rounded=0;orthogonalLoop=1;jettySize=auto;html=1;" parent="1" source="frMeNEFfwjuMo3mBpww0-19" target="frMeNEFfwjuMo3mBpww0-25" edge="1">
          <mxGeometry relative="1" as="geometry">
            <Array as="points">
              <mxPoint x="210" y="230" />
              <mxPoint x="210" y="230" />
            </Array>
          </mxGeometry>
        </mxCell>
        <mxCell id="2QfK-ii52q8--LfC2cZZ-15" value="Hỗ trợ" style="edgeLabel;html=1;align=center;verticalAlign=middle;resizable=0;points=[];" parent="2QfK-ii52q8--LfC2cZZ-14" vertex="1" connectable="0">
          <mxGeometry x="0.0242" y="-1" relative="1" as="geometry">
            <mxPoint as="offset" />
          </mxGeometry>
        </mxCell>
        <mxCell id="frMeNEFfwjuMo3mBpww0-19" value="4" style="swimlane;fontStyle=1;childLayout=stackLayout;horizontal=1;startSize=20;fillColor=#ffffff;horizontalStack=0;resizeParent=1;resizeParentMax=0;resizeLast=0;collapsible=0;marginBottom=0;swimlaneFillColor=#ffffff;rounded=1;fontSize=13;" parent="1" vertex="1">
          <mxGeometry x="190" y="290" width="100" height="110" as="geometry" />
        </mxCell>
        <mxCell id="frMeNEFfwjuMo3mBpww0-20" value="&lt;b&gt;&lt;font style=&quot;font-size: 13px;&quot;&gt;Quản lý khách hàng&lt;/font&gt;&lt;/b&gt;" style="text;html=1;align=center;verticalAlign=middle;whiteSpace=wrap;rounded=1;" parent="frMeNEFfwjuMo3mBpww0-19" vertex="1">
          <mxGeometry y="20" width="100" height="90" as="geometry" />
        </mxCell>
        <mxCell id="frMeNEFfwjuMo3mBpww0-21" value="3" style="swimlane;fontStyle=1;childLayout=stackLayout;horizontal=1;startSize=20;fillColor=#ffffff;horizontalStack=0;resizeParent=1;resizeParentMax=0;resizeLast=0;collapsible=0;marginBottom=0;swimlaneFillColor=#ffffff;rounded=1;fontSize=13;" parent="1" vertex="1">
          <mxGeometry x="384.97" y="600" width="100" height="110" as="geometry" />
        </mxCell>
        <mxCell id="frMeNEFfwjuMo3mBpww0-22" value="&lt;b&gt;&lt;font style=&quot;font-size: 13px;&quot;&gt;Quản lý nhân viên&lt;/font&gt;&lt;/b&gt;" style="text;html=1;align=center;verticalAlign=middle;whiteSpace=wrap;rounded=1;" parent="frMeNEFfwjuMo3mBpww0-21" vertex="1">
          <mxGeometry y="20" width="100" height="90" as="geometry" />
        </mxCell>
        <mxCell id="frMeNEFfwjuMo3mBpww0-33" style="edgeStyle=orthogonalEdgeStyle;rounded=0;orthogonalLoop=1;jettySize=auto;html=1;exitX=1;exitY=0.25;exitDx=0;exitDy=0;" parent="1" source="frMeNEFfwjuMo3mBpww0-25" target="frMeNEFfwjuMo3mBpww0-13" edge="1">
          <mxGeometry relative="1" as="geometry">
            <mxPoint x="460" y="290" as="targetPoint" />
            <Array as="points">
              <mxPoint x="450" y="143" />
            </Array>
          </mxGeometry>
        </mxCell>
        <mxCell id="frMeNEFfwjuMo3mBpww0-34" value="Đơn hàng" style="edgeLabel;html=1;align=center;verticalAlign=middle;resizable=0;points=[];" parent="frMeNEFfwjuMo3mBpww0-33" vertex="1" connectable="0">
          <mxGeometry x="-0.5239" y="8" relative="1" as="geometry">
            <mxPoint x="-1" y="-4" as="offset" />
          </mxGeometry>
        </mxCell>
        <mxCell id="frMeNEFfwjuMo3mBpww0-25" value="&lt;b&gt;&lt;font style=&quot;font-size: 13px;&quot;&gt;Khách hàng&lt;/font&gt;&lt;/b&gt;" style="rounded=0;whiteSpace=wrap;html=1;" parent="1" vertex="1">
          <mxGeometry x="170" y="130" width="130" height="50" as="geometry" />
        </mxCell>
        <mxCell id="frMeNEFfwjuMo3mBpww0-133" style="edgeStyle=orthogonalEdgeStyle;rounded=0;orthogonalLoop=1;jettySize=auto;html=1;" parent="1" source="frMeNEFfwjuMo3mBpww0-26" target="frMeNEFfwjuMo3mBpww0-19" edge="1">
          <mxGeometry relative="1" as="geometry">
            <Array as="points">
              <mxPoint x="70" y="345" />
            </Array>
          </mxGeometry>
        </mxCell>
        <mxCell id="2QfK-ii52q8--LfC2cZZ-2" value="Khách hàng&lt;div&gt;thân thiết&lt;/div&gt;" style="edgeLabel;html=1;align=center;verticalAlign=middle;resizable=0;points=[];" parent="frMeNEFfwjuMo3mBpww0-133" vertex="1" connectable="0">
          <mxGeometry x="0.1156" y="1" relative="1" as="geometry">
            <mxPoint x="-7" y="-14" as="offset" />
          </mxGeometry>
        </mxCell>
        <mxCell id="frMeNEFfwjuMo3mBpww0-26" value="" style="html=1;dashed=0;whiteSpace=wrap;shape=mxgraph.dfd.dataStoreID;align=left;spacingLeft=3;points=[[0,0],[0.5,0],[1,0],[0,0.5],[1,0.5],[0,1],[0.5,1],[1,1]];" parent="1" vertex="1">
          <mxGeometry y="270" width="100" height="30" as="geometry" />
        </mxCell>
        <mxCell id="frMeNEFfwjuMo3mBpww0-27" value="Khách hàng" style="text;html=1;align=center;verticalAlign=middle;whiteSpace=wrap;rounded=0;" parent="1" vertex="1">
          <mxGeometry x="30" y="270" width="60" height="30" as="geometry" />
        </mxCell>
        <mxCell id="frMeNEFfwjuMo3mBpww0-28" value="" style="html=1;dashed=0;whiteSpace=wrap;shape=mxgraph.dfd.dataStoreID;align=left;spacingLeft=3;points=[[0,0],[0.5,0],[1,0],[0,0.5],[1,0.5],[0,1],[0.5,1],[1,1]];" parent="1" vertex="1">
          <mxGeometry x="560" y="414" width="120" height="30" as="geometry" />
        </mxCell>
        <mxCell id="frMeNEFfwjuMo3mBpww0-29" value="Hóa đơn" style="text;html=1;align=center;verticalAlign=middle;whiteSpace=wrap;rounded=0;" parent="1" vertex="1">
          <mxGeometry x="590" y="414" width="70" height="30" as="geometry" />
        </mxCell>
        <mxCell id="frMeNEFfwjuMo3mBpww0-37" style="edgeStyle=orthogonalEdgeStyle;rounded=0;orthogonalLoop=1;jettySize=auto;html=1;" parent="1" source="frMeNEFfwjuMo3mBpww0-13" target="frMeNEFfwjuMo3mBpww0-25" edge="1">
          <mxGeometry relative="1" as="geometry">
            <Array as="points">
              <mxPoint x="480" y="100" />
              <mxPoint x="240" y="100" />
            </Array>
          </mxGeometry>
        </mxCell>
        <mxCell id="frMeNEFfwjuMo3mBpww0-38" value="Thông tin thanh toán" style="edgeLabel;html=1;align=center;verticalAlign=middle;resizable=0;points=[];" parent="frMeNEFfwjuMo3mBpww0-37" vertex="1" connectable="0">
          <mxGeometry x="-0.0592" y="-2" relative="1" as="geometry">
            <mxPoint x="-93" y="-13" as="offset" />
          </mxGeometry>
        </mxCell>
        <mxCell id="frMeNEFfwjuMo3mBpww0-52" style="edgeStyle=orthogonalEdgeStyle;rounded=0;orthogonalLoop=1;jettySize=auto;html=1;" parent="1" source="frMeNEFfwjuMo3mBpww0-39" target="frMeNEFfwjuMo3mBpww0-1" edge="1">
          <mxGeometry relative="1" as="geometry">
            <Array as="points">
              <mxPoint x="1030" y="180" />
              <mxPoint x="1030" y="180" />
            </Array>
            <mxPoint x="1024.9855172413793" y="110" as="sourcePoint" />
            <mxPoint x="1035.0199999999998" y="250.01999999999998" as="targetPoint" />
          </mxGeometry>
        </mxCell>
        <mxCell id="frMeNEFfwjuMo3mBpww0-55" value="Mặt hàng" style="edgeLabel;html=1;align=center;verticalAlign=middle;resizable=0;points=[];" parent="frMeNEFfwjuMo3mBpww0-52" vertex="1" connectable="0">
          <mxGeometry x="-0.2067" y="-7" relative="1" as="geometry">
            <mxPoint x="7" y="19" as="offset" />
          </mxGeometry>
        </mxCell>
        <mxCell id="frMeNEFfwjuMo3mBpww0-53" style="edgeStyle=orthogonalEdgeStyle;rounded=0;orthogonalLoop=1;jettySize=auto;html=1;" parent="1" source="frMeNEFfwjuMo3mBpww0-39" target="frMeNEFfwjuMo3mBpww0-1" edge="1">
          <mxGeometry relative="1" as="geometry">
            <Array as="points">
              <mxPoint x="1130" y="88" />
              <mxPoint x="1130" y="280" />
            </Array>
          </mxGeometry>
        </mxCell>
        <mxCell id="frMeNEFfwjuMo3mBpww0-56" value="Nhà cung cấp" style="edgeLabel;html=1;align=center;verticalAlign=middle;resizable=0;points=[];" parent="frMeNEFfwjuMo3mBpww0-53" vertex="1" connectable="0">
          <mxGeometry x="-0.1631" y="-8" relative="1" as="geometry">
            <mxPoint x="8" as="offset" />
          </mxGeometry>
        </mxCell>
        <mxCell id="nWM1yLNaq_5bOoscvzO5-35" style="edgeStyle=orthogonalEdgeStyle;rounded=0;orthogonalLoop=1;jettySize=auto;html=1;exitX=0.25;exitY=1;exitDx=0;exitDy=0;" parent="1" source="frMeNEFfwjuMo3mBpww0-39" target="frMeNEFfwjuMo3mBpww0-1" edge="1">
          <mxGeometry relative="1" as="geometry">
            <Array as="points">
              <mxPoint x="995" y="220" />
              <mxPoint x="995" y="220" />
            </Array>
          </mxGeometry>
        </mxCell>
        <mxCell id="nWM1yLNaq_5bOoscvzO5-36" value="Kiểm tra&lt;div&gt;hàng hóa&lt;/div&gt;" style="edgeLabel;html=1;align=center;verticalAlign=middle;resizable=0;points=[];" parent="nWM1yLNaq_5bOoscvzO5-35" vertex="1" connectable="0">
          <mxGeometry x="-0.0238" y="-2" relative="1" as="geometry">
            <mxPoint y="-28" as="offset" />
          </mxGeometry>
        </mxCell>
        <mxCell id="frMeNEFfwjuMo3mBpww0-39" value="&lt;b&gt;&lt;font style=&quot;font-size: 13px;&quot;&gt;Bộ phận nhập hàng&lt;/font&gt;&lt;/b&gt;" style="rounded=0;whiteSpace=wrap;html=1;" parent="1" vertex="1">
          <mxGeometry x="960" y="60" width="140" height="50" as="geometry" />
        </mxCell>
        <mxCell id="nWM1yLNaq_5bOoscvzO5-26" style="edgeStyle=orthogonalEdgeStyle;rounded=0;orthogonalLoop=1;jettySize=auto;html=1;exitX=1;exitY=0.5;exitDx=0;exitDy=0;" parent="1" source="frMeNEFfwjuMo3mBpww0-40" target="frMeNEFfwjuMo3mBpww0-17" edge="1">
          <mxGeometry relative="1" as="geometry">
            <Array as="points">
              <mxPoint x="670" y="77.5" />
              <mxPoint x="870" y="77.5" />
            </Array>
          </mxGeometry>
        </mxCell>
        <mxCell id="nWM1yLNaq_5bOoscvzO5-27" value="Chứng từ, hóa đơn mua hàng" style="edgeLabel;html=1;align=center;verticalAlign=middle;resizable=0;points=[];" parent="nWM1yLNaq_5bOoscvzO5-26" vertex="1" connectable="0">
          <mxGeometry x="-0.2692" y="1" relative="1" as="geometry">
            <mxPoint x="15" y="-9" as="offset" />
          </mxGeometry>
        </mxCell>
        <mxCell id="nWM1yLNaq_5bOoscvzO5-28" style="edgeStyle=orthogonalEdgeStyle;rounded=0;orthogonalLoop=1;jettySize=auto;html=1;" parent="1" source="frMeNEFfwjuMo3mBpww0-40" target="frMeNEFfwjuMo3mBpww0-17" edge="1">
          <mxGeometry relative="1" as="geometry">
            <Array as="points">
              <mxPoint x="848" y="97.5" />
            </Array>
          </mxGeometry>
        </mxCell>
        <mxCell id="nWM1yLNaq_5bOoscvzO5-29" value="Thông tin nhà cung cấp" style="edgeLabel;html=1;align=center;verticalAlign=middle;resizable=0;points=[];" parent="nWM1yLNaq_5bOoscvzO5-28" vertex="1" connectable="0">
          <mxGeometry x="0.1552" relative="1" as="geometry">
            <mxPoint x="-33" y="-9" as="offset" />
          </mxGeometry>
        </mxCell>
        <mxCell id="frMeNEFfwjuMo3mBpww0-40" value="&lt;b&gt;&lt;font style=&quot;font-size: 13px;&quot;&gt;Nhà cung cấp&lt;/font&gt;&lt;/b&gt;" style="rounded=0;whiteSpace=wrap;html=1;" parent="1" vertex="1">
          <mxGeometry x="540" y="67.5" width="130" height="60" as="geometry" />
        </mxCell>
        <mxCell id="frMeNEFfwjuMo3mBpww0-41" style="edgeStyle=orthogonalEdgeStyle;rounded=0;orthogonalLoop=1;jettySize=auto;html=1;" parent="1" source="frMeNEFfwjuMo3mBpww0-17" target="frMeNEFfwjuMo3mBpww0-40" edge="1">
          <mxGeometry relative="1" as="geometry">
            <mxPoint x="1077.5" y="354.5" as="sourcePoint" />
            <mxPoint x="1287.5" y="412.5" as="targetPoint" />
            <Array as="points">
              <mxPoint x="820" y="117.5" />
            </Array>
          </mxGeometry>
        </mxCell>
        <mxCell id="frMeNEFfwjuMo3mBpww0-42" value="Đơn đặt hàng" style="edgeLabel;html=1;align=center;verticalAlign=middle;resizable=0;points=[];" parent="frMeNEFfwjuMo3mBpww0-41" vertex="1" connectable="0">
          <mxGeometry x="-0.1053" y="8" relative="1" as="geometry">
            <mxPoint x="-1" y="-18" as="offset" />
          </mxGeometry>
        </mxCell>
        <mxCell id="frMeNEFfwjuMo3mBpww0-77" style="edgeStyle=orthogonalEdgeStyle;rounded=0;orthogonalLoop=1;jettySize=auto;html=1;exitX=0;exitY=0.5;exitDx=0;exitDy=0;" parent="1" source="frMeNEFfwjuMo3mBpww0-45" target="frMeNEFfwjuMo3mBpww0-13" edge="1">
          <mxGeometry relative="1" as="geometry">
            <Array as="points">
              <mxPoint x="610" y="345" />
              <mxPoint x="610" y="345" />
            </Array>
          </mxGeometry>
        </mxCell>
        <mxCell id="frMeNEFfwjuMo3mBpww0-78" value="Hàng bán" style="edgeLabel;html=1;align=center;verticalAlign=middle;resizable=0;points=[];" parent="frMeNEFfwjuMo3mBpww0-77" vertex="1" connectable="0">
          <mxGeometry x="-0.0117" relative="1" as="geometry">
            <mxPoint x="-31" y="-8" as="offset" />
          </mxGeometry>
        </mxCell>
        <mxCell id="6pDtSbzWZjow2PwJmfd2-19" style="edgeStyle=orthogonalEdgeStyle;rounded=0;orthogonalLoop=1;jettySize=auto;html=1;" parent="1" source="frMeNEFfwjuMo3mBpww0-1" target="frMeNEFfwjuMo3mBpww0-15" edge="1">
          <mxGeometry relative="1" as="geometry">
            <Array as="points">
              <mxPoint x="1020" y="410" />
              <mxPoint x="740" y="410" />
            </Array>
          </mxGeometry>
        </mxCell>
        <mxCell id="1NJ5WVEYGRyoX9_osyBo-19" value="Báo cáo tồn kho" style="edgeLabel;html=1;align=center;verticalAlign=middle;resizable=0;points=[];" parent="6pDtSbzWZjow2PwJmfd2-19" vertex="1" connectable="0">
          <mxGeometry x="-0.0986" y="-1" relative="1" as="geometry">
            <mxPoint y="-9" as="offset" />
          </mxGeometry>
        </mxCell>
        <mxCell id="frMeNEFfwjuMo3mBpww0-45" value="" style="html=1;dashed=0;whiteSpace=wrap;shape=mxgraph.dfd.dataStoreID;align=left;spacingLeft=3;points=[[0,0],[0.5,0],[1,0],[0,0.5],[1,0.5],[0,1],[0.5,1],[1,1]];" parent="1" vertex="1">
          <mxGeometry x="720" y="330" width="100" height="30" as="geometry" />
        </mxCell>
        <mxCell id="frMeNEFfwjuMo3mBpww0-46" value="Kho hàng" style="text;html=1;align=center;verticalAlign=middle;whiteSpace=wrap;rounded=0;" parent="1" vertex="1">
          <mxGeometry x="750" y="330" width="50" height="30" as="geometry" />
        </mxCell>
        <mxCell id="frMeNEFfwjuMo3mBpww0-47" style="edgeStyle=orthogonalEdgeStyle;rounded=0;orthogonalLoop=1;jettySize=auto;html=1;" parent="1" source="frMeNEFfwjuMo3mBpww0-1" target="frMeNEFfwjuMo3mBpww0-39" edge="1">
          <mxGeometry relative="1" as="geometry">
            <Array as="points">
              <mxPoint x="1070" y="180" />
              <mxPoint x="1070" y="180" />
            </Array>
          </mxGeometry>
        </mxCell>
        <mxCell id="frMeNEFfwjuMo3mBpww0-50" value="Phiếu&amp;nbsp;&lt;div&gt;nhập hàng&lt;/div&gt;" style="edgeLabel;html=1;align=center;verticalAlign=middle;resizable=0;points=[];" parent="frMeNEFfwjuMo3mBpww0-47" vertex="1" connectable="0">
          <mxGeometry x="-0.3775" y="7" relative="1" as="geometry">
            <mxPoint x="7" y="6" as="offset" />
          </mxGeometry>
        </mxCell>
        <mxCell id="frMeNEFfwjuMo3mBpww0-61" value="" style="html=1;dashed=0;whiteSpace=wrap;shape=mxgraph.dfd.dataStoreID;align=left;spacingLeft=3;points=[[0,0],[0.5,0],[1,0],[0,0.5],[1,0.5],[0,1],[0.5,1],[1,1]];" parent="1" vertex="1">
          <mxGeometry x="940" y="500" width="100" height="30" as="geometry" />
        </mxCell>
        <mxCell id="frMeNEFfwjuMo3mBpww0-62" value="Phiếu nhập" style="text;html=1;align=center;verticalAlign=middle;whiteSpace=wrap;rounded=0;" parent="1" vertex="1">
          <mxGeometry x="970" y="500" width="70" height="30" as="geometry" />
        </mxCell>
        <mxCell id="frMeNEFfwjuMo3mBpww0-63" value="" style="html=1;dashed=0;whiteSpace=wrap;shape=mxgraph.dfd.dataStoreID;align=left;spacingLeft=3;points=[[0,0],[0.5,0],[1,0],[0,0.5],[1,0.5],[0,1],[0.5,1],[1,1]];" parent="1" vertex="1">
          <mxGeometry x="1060" y="500" width="100" height="30" as="geometry" />
        </mxCell>
        <mxCell id="frMeNEFfwjuMo3mBpww0-64" value="Phiếu chi" style="text;html=1;align=center;verticalAlign=middle;whiteSpace=wrap;rounded=0;" parent="1" vertex="1">
          <mxGeometry x="1090" y="500" width="60" height="30" as="geometry" />
        </mxCell>
        <mxCell id="frMeNEFfwjuMo3mBpww0-67" style="edgeStyle=orthogonalEdgeStyle;rounded=0;orthogonalLoop=1;jettySize=auto;html=1;" parent="1" source="frMeNEFfwjuMo3mBpww0-1" target="frMeNEFfwjuMo3mBpww0-61" edge="1">
          <mxGeometry relative="1" as="geometry">
            <Array as="points">
              <mxPoint x="1100" y="340" />
              <mxPoint x="1100" y="455" />
              <mxPoint x="1000" y="455" />
            </Array>
            <mxPoint x="850" y="450" as="sourcePoint" />
          </mxGeometry>
        </mxCell>
        <mxCell id="frMeNEFfwjuMo3mBpww0-69" value="Xuất phiếu nhập" style="edgeLabel;html=1;align=center;verticalAlign=middle;resizable=0;points=[];" parent="frMeNEFfwjuMo3mBpww0-67" vertex="1" connectable="0">
          <mxGeometry x="0.0061" y="1" relative="1" as="geometry">
            <mxPoint x="-44" y="-11" as="offset" />
          </mxGeometry>
        </mxCell>
        <mxCell id="frMeNEFfwjuMo3mBpww0-68" style="edgeStyle=orthogonalEdgeStyle;rounded=0;orthogonalLoop=1;jettySize=auto;html=1;" parent="1" source="frMeNEFfwjuMo3mBpww0-1" target="frMeNEFfwjuMo3mBpww0-63" edge="1">
          <mxGeometry relative="1" as="geometry">
            <Array as="points">
              <mxPoint x="1130" y="310" />
            </Array>
            <mxPoint x="1070" y="420" as="sourcePoint" />
          </mxGeometry>
        </mxCell>
        <mxCell id="frMeNEFfwjuMo3mBpww0-70" value="Xuất&lt;div&gt;phiếu chi&lt;/div&gt;" style="edgeLabel;html=1;align=center;verticalAlign=middle;resizable=0;points=[];" parent="frMeNEFfwjuMo3mBpww0-68" vertex="1" connectable="0">
          <mxGeometry x="-0.0211" relative="1" as="geometry">
            <mxPoint y="23" as="offset" />
          </mxGeometry>
        </mxCell>
        <mxCell id="frMeNEFfwjuMo3mBpww0-71" style="edgeStyle=orthogonalEdgeStyle;rounded=0;orthogonalLoop=1;jettySize=auto;html=1;" parent="1" source="frMeNEFfwjuMo3mBpww0-61" target="frMeNEFfwjuMo3mBpww0-15" edge="1">
          <mxGeometry relative="1" as="geometry">
            <Array as="points">
              <mxPoint x="860" y="520" />
              <mxPoint x="860" y="520" />
            </Array>
          </mxGeometry>
        </mxCell>
        <mxCell id="frMeNEFfwjuMo3mBpww0-72" value="Đơn phiếu nhập" style="edgeLabel;html=1;align=center;verticalAlign=middle;resizable=0;points=[];" parent="frMeNEFfwjuMo3mBpww0-71" vertex="1" connectable="0">
          <mxGeometry x="0.0118" y="1" relative="1" as="geometry">
            <mxPoint x="11" y="-12" as="offset" />
          </mxGeometry>
        </mxCell>
        <mxCell id="frMeNEFfwjuMo3mBpww0-73" style="edgeStyle=orthogonalEdgeStyle;rounded=0;orthogonalLoop=1;jettySize=auto;html=1;" parent="1" source="frMeNEFfwjuMo3mBpww0-63" target="frMeNEFfwjuMo3mBpww0-15" edge="1">
          <mxGeometry relative="1" as="geometry">
            <Array as="points">
              <mxPoint x="1130" y="545" />
            </Array>
            <mxPoint x="779.9999999999998" y="554.9655172413793" as="targetPoint" />
          </mxGeometry>
        </mxCell>
        <mxCell id="frMeNEFfwjuMo3mBpww0-74" value="Đơn phiếu chi" style="edgeLabel;html=1;align=center;verticalAlign=middle;resizable=0;points=[];" parent="frMeNEFfwjuMo3mBpww0-73" vertex="1" connectable="0">
          <mxGeometry x="0.0375" relative="1" as="geometry">
            <mxPoint x="-86" y="-10" as="offset" />
          </mxGeometry>
        </mxCell>
        <mxCell id="frMeNEFfwjuMo3mBpww0-75" style="edgeStyle=orthogonalEdgeStyle;rounded=0;orthogonalLoop=1;jettySize=auto;html=1;" parent="1" source="frMeNEFfwjuMo3mBpww0-1" target="frMeNEFfwjuMo3mBpww0-45" edge="1">
          <mxGeometry relative="1" as="geometry">
            <mxPoint x="930" y="420.04999999999995" as="targetPoint" />
            <Array as="points">
              <mxPoint x="900" y="345" />
              <mxPoint x="900" y="345" />
            </Array>
          </mxGeometry>
        </mxCell>
        <mxCell id="frMeNEFfwjuMo3mBpww0-76" value="Nhập hàng" style="edgeLabel;html=1;align=center;verticalAlign=middle;resizable=0;points=[];" parent="frMeNEFfwjuMo3mBpww0-75" vertex="1" connectable="0">
          <mxGeometry x="0.0077" y="1" relative="1" as="geometry">
            <mxPoint x="15" y="-11" as="offset" />
          </mxGeometry>
        </mxCell>
        <mxCell id="frMeNEFfwjuMo3mBpww0-86" style="edgeStyle=orthogonalEdgeStyle;rounded=0;orthogonalLoop=1;jettySize=auto;html=1;exitX=0;exitY=0.5;exitDx=0;exitDy=0;" parent="1" source="frMeNEFfwjuMo3mBpww0-79" target="frMeNEFfwjuMo3mBpww0-13" edge="1">
          <mxGeometry relative="1" as="geometry">
            <Array as="points">
              <mxPoint x="550" y="385" />
              <mxPoint x="550" y="385" />
            </Array>
          </mxGeometry>
        </mxCell>
        <mxCell id="frMeNEFfwjuMo3mBpww0-87" value="Đơn giá bán" style="edgeLabel;html=1;align=center;verticalAlign=middle;resizable=0;points=[];" parent="frMeNEFfwjuMo3mBpww0-86" vertex="1" connectable="0">
          <mxGeometry x="-0.0068" y="-1" relative="1" as="geometry">
            <mxPoint x="2" y="-9" as="offset" />
          </mxGeometry>
        </mxCell>
        <mxCell id="frMeNEFfwjuMo3mBpww0-79" value="" style="html=1;dashed=0;whiteSpace=wrap;shape=mxgraph.dfd.dataStoreID;align=left;spacingLeft=3;points=[[0,0],[0.5,0],[1,0],[0,0.5],[1,0.5],[0,1],[0.5,1],[1,1]];" parent="1" vertex="1">
          <mxGeometry x="650" y="370" width="100" height="30" as="geometry" />
        </mxCell>
        <mxCell id="frMeNEFfwjuMo3mBpww0-80" value="Bảng giá" style="text;html=1;align=center;verticalAlign=middle;whiteSpace=wrap;rounded=0;" parent="1" vertex="1">
          <mxGeometry x="680" y="370" width="60" height="30" as="geometry" />
        </mxCell>
        <mxCell id="frMeNEFfwjuMo3mBpww0-81" style="edgeStyle=orthogonalEdgeStyle;rounded=0;orthogonalLoop=1;jettySize=auto;html=1;" parent="1" source="frMeNEFfwjuMo3mBpww0-15" target="frMeNEFfwjuMo3mBpww0-79" edge="1">
          <mxGeometry relative="1" as="geometry">
            <Array as="points">
              <mxPoint x="720" y="450" />
              <mxPoint x="720" y="450" />
            </Array>
          </mxGeometry>
        </mxCell>
        <mxCell id="frMeNEFfwjuMo3mBpww0-82" value="Giá sản&amp;nbsp;&lt;div&gt;phẩm&lt;/div&gt;" style="edgeLabel;html=1;align=center;verticalAlign=middle;resizable=0;points=[];" parent="frMeNEFfwjuMo3mBpww0-81" vertex="1" connectable="0">
          <mxGeometry x="-0.057" y="1" relative="1" as="geometry">
            <mxPoint as="offset" />
          </mxGeometry>
        </mxCell>
        <mxCell id="frMeNEFfwjuMo3mBpww0-93" style="edgeStyle=orthogonalEdgeStyle;rounded=0;orthogonalLoop=1;jettySize=auto;html=1;" parent="1" source="frMeNEFfwjuMo3mBpww0-1" target="frMeNEFfwjuMo3mBpww0-17" edge="1">
          <mxGeometry relative="1" as="geometry">
            <Array as="points">
              <mxPoint x="870" y="280" />
            </Array>
            <mxPoint x="1160" y="390" as="targetPoint" />
          </mxGeometry>
        </mxCell>
        <mxCell id="frMeNEFfwjuMo3mBpww0-95" value="Đơn hàng" style="edgeLabel;html=1;align=center;verticalAlign=middle;resizable=0;points=[];" parent="frMeNEFfwjuMo3mBpww0-93" vertex="1" connectable="0">
          <mxGeometry x="-0.5003" y="7" relative="1" as="geometry">
            <mxPoint x="-23" y="-17" as="offset" />
          </mxGeometry>
        </mxCell>
        <mxCell id="frMeNEFfwjuMo3mBpww0-101" style="edgeStyle=orthogonalEdgeStyle;rounded=0;orthogonalLoop=1;jettySize=auto;html=1;" parent="1" source="frMeNEFfwjuMo3mBpww0-13" target="frMeNEFfwjuMo3mBpww0-28" edge="1">
          <mxGeometry relative="1" as="geometry">
            <mxPoint x="510" y="550" as="targetPoint" />
            <Array as="points">
              <mxPoint x="470" y="430" />
            </Array>
          </mxGeometry>
        </mxCell>
        <mxCell id="frMeNEFfwjuMo3mBpww0-102" value="Xuất hóa đơn" style="edgeLabel;html=1;align=center;verticalAlign=middle;resizable=0;points=[];" parent="frMeNEFfwjuMo3mBpww0-101" vertex="1" connectable="0">
          <mxGeometry x="0.0069" relative="1" as="geometry">
            <mxPoint x="20" y="-15" as="offset" />
          </mxGeometry>
        </mxCell>
        <mxCell id="frMeNEFfwjuMo3mBpww0-103" style="edgeStyle=orthogonalEdgeStyle;rounded=0;orthogonalLoop=1;jettySize=auto;html=1;" parent="1" source="frMeNEFfwjuMo3mBpww0-28" target="frMeNEFfwjuMo3mBpww0-15" edge="1">
          <mxGeometry relative="1" as="geometry">
            <Array as="points">
              <mxPoint x="620" y="520" />
            </Array>
          </mxGeometry>
        </mxCell>
        <mxCell id="2QfK-ii52q8--LfC2cZZ-1" value="Danh mục&lt;div&gt;hóa đơn&lt;/div&gt;" style="edgeLabel;html=1;align=center;verticalAlign=middle;resizable=0;points=[];" parent="frMeNEFfwjuMo3mBpww0-103" vertex="1" connectable="0">
          <mxGeometry x="-0.0545" relative="1" as="geometry">
            <mxPoint y="-21" as="offset" />
          </mxGeometry>
        </mxCell>
        <mxCell id="frMeNEFfwjuMo3mBpww0-105" style="edgeStyle=orthogonalEdgeStyle;rounded=0;orthogonalLoop=1;jettySize=auto;html=1;" parent="1" target="nWM1yLNaq_5bOoscvzO5-38" edge="1">
          <mxGeometry relative="1" as="geometry">
            <Array as="points">
              <mxPoint x="210" y="600" />
              <mxPoint x="210" y="760" />
            </Array>
            <mxPoint x="199.99857142857135" y="600" as="sourcePoint" />
          </mxGeometry>
        </mxCell>
        <mxCell id="6pDtSbzWZjow2PwJmfd2-8" value="Thông tin nhân viên" style="edgeLabel;html=1;align=center;verticalAlign=middle;resizable=0;points=[];" parent="frMeNEFfwjuMo3mBpww0-105" vertex="1" connectable="0">
          <mxGeometry x="0.4548" relative="1" as="geometry">
            <mxPoint x="16" y="-10" as="offset" />
          </mxGeometry>
        </mxCell>
        <mxCell id="frMeNEFfwjuMo3mBpww0-104" value="&lt;font style=&quot;font-size: 13px;&quot;&gt;Nhân viên&lt;/font&gt;" style="html=1;dashed=0;whiteSpace=wrap;fontStyle=1" parent="1" vertex="1">
          <mxGeometry x="150" y="560" width="160" height="40" as="geometry" />
        </mxCell>
        <mxCell id="frMeNEFfwjuMo3mBpww0-129" style="edgeStyle=orthogonalEdgeStyle;rounded=0;orthogonalLoop=1;jettySize=auto;html=1;" parent="1" source="frMeNEFfwjuMo3mBpww0-25" target="frMeNEFfwjuMo3mBpww0-19" edge="1">
          <mxGeometry relative="1" as="geometry">
            <Array as="points">
              <mxPoint x="140" y="170" />
              <mxPoint x="140" y="310" />
            </Array>
          </mxGeometry>
        </mxCell>
        <mxCell id="frMeNEFfwjuMo3mBpww0-130" value="Yêu cầu&lt;div&gt;hỗ trợ&lt;/div&gt;" style="edgeLabel;html=1;align=center;verticalAlign=middle;resizable=0;points=[];" parent="frMeNEFfwjuMo3mBpww0-129" vertex="1" connectable="0">
          <mxGeometry x="-0.0833" y="-2" relative="1" as="geometry">
            <mxPoint as="offset" />
          </mxGeometry>
        </mxCell>
        <mxCell id="frMeNEFfwjuMo3mBpww0-131" style="edgeStyle=orthogonalEdgeStyle;rounded=0;orthogonalLoop=1;jettySize=auto;html=1;exitX=0;exitY=0.25;exitDx=0;exitDy=0;" parent="1" source="frMeNEFfwjuMo3mBpww0-25" target="frMeNEFfwjuMo3mBpww0-26" edge="1">
          <mxGeometry relative="1" as="geometry">
            <Array as="points">
              <mxPoint x="50" y="142" />
            </Array>
          </mxGeometry>
        </mxCell>
        <mxCell id="frMeNEFfwjuMo3mBpww0-132" value="Thông tin&amp;nbsp;&lt;div&gt;khách hàng&lt;/div&gt;" style="edgeLabel;html=1;align=center;verticalAlign=middle;resizable=0;points=[];" parent="frMeNEFfwjuMo3mBpww0-131" vertex="1" connectable="0">
          <mxGeometry x="0.3083" relative="1" as="geometry">
            <mxPoint y="3" as="offset" />
          </mxGeometry>
        </mxCell>
        <mxCell id="6pDtSbzWZjow2PwJmfd2-7" style="edgeStyle=orthogonalEdgeStyle;rounded=0;orthogonalLoop=1;jettySize=auto;html=1;" parent="1" source="frMeNEFfwjuMo3mBpww0-104" target="JK4CWT-u_it-27RJsuB0-1" edge="1">
          <mxGeometry relative="1" as="geometry">
            <Array as="points">
              <mxPoint x="170" y="750" />
              <mxPoint x="170" y="750" />
            </Array>
            <mxPoint x="219.99857142857147" y="600" as="sourcePoint" />
          </mxGeometry>
        </mxCell>
        <mxCell id="6pDtSbzWZjow2PwJmfd2-9" value="Chấm công" style="edgeLabel;html=1;align=center;verticalAlign=middle;resizable=0;points=[];" parent="6pDtSbzWZjow2PwJmfd2-7" vertex="1" connectable="0">
          <mxGeometry x="-0.4422" y="1" relative="1" as="geometry">
            <mxPoint x="129" y="68" as="offset" />
          </mxGeometry>
        </mxCell>
        <mxCell id="6pDtSbzWZjow2PwJmfd2-10" style="edgeStyle=orthogonalEdgeStyle;rounded=0;orthogonalLoop=1;jettySize=auto;html=1;" parent="1" source="frMeNEFfwjuMo3mBpww0-21" target="frMeNEFfwjuMo3mBpww0-104" edge="1">
          <mxGeometry relative="1" as="geometry">
            <Array as="points">
              <mxPoint x="290" y="650" />
            </Array>
            <mxPoint x="259.9985714285715" y="600" as="targetPoint" />
          </mxGeometry>
        </mxCell>
        <mxCell id="6pDtSbzWZjow2PwJmfd2-11" value="Lịch làm việc" style="edgeLabel;html=1;align=center;verticalAlign=middle;resizable=0;points=[];" parent="6pDtSbzWZjow2PwJmfd2-10" vertex="1" connectable="0">
          <mxGeometry x="-0.375" y="-1" relative="1" as="geometry">
            <mxPoint x="-10" y="-9" as="offset" />
          </mxGeometry>
        </mxCell>
        <mxCell id="frMeNEFfwjuMo3mBpww0-115" style="edgeStyle=orthogonalEdgeStyle;rounded=0;orthogonalLoop=1;jettySize=auto;html=1;" parent="1" source="frMeNEFfwjuMo3mBpww0-21" target="frMeNEFfwjuMo3mBpww0-104" edge="1">
          <mxGeometry relative="1" as="geometry">
            <Array as="points">
              <mxPoint x="250" y="680" />
            </Array>
            <mxPoint x="239.99857142857147" y="600" as="targetPoint" />
          </mxGeometry>
        </mxCell>
        <mxCell id="frMeNEFfwjuMo3mBpww0-116" value="Trả lương" style="edgeLabel;html=1;align=center;verticalAlign=middle;resizable=0;points=[];" parent="frMeNEFfwjuMo3mBpww0-115" vertex="1" connectable="0">
          <mxGeometry x="-0.4328" y="-1" relative="1" as="geometry">
            <mxPoint x="6" y="-9" as="offset" />
          </mxGeometry>
        </mxCell>
        <mxCell id="nWM1yLNaq_5bOoscvzO5-1" style="edgeStyle=orthogonalEdgeStyle;rounded=0;orthogonalLoop=1;jettySize=auto;html=1;" parent="1" source="frMeNEFfwjuMo3mBpww0-13" target="frMeNEFfwjuMo3mBpww0-19" edge="1">
          <mxGeometry relative="1" as="geometry">
            <Array as="points">
              <mxPoint x="350" y="310" />
              <mxPoint x="350" y="310" />
            </Array>
          </mxGeometry>
        </mxCell>
        <mxCell id="nWM1yLNaq_5bOoscvzO5-2" value="Lịch sử&lt;div&gt;mua hàng&lt;/div&gt;" style="edgeLabel;html=1;align=center;verticalAlign=middle;resizable=0;points=[];" parent="nWM1yLNaq_5bOoscvzO5-1" vertex="1" connectable="0">
          <mxGeometry x="-0.0455" y="-1" relative="1" as="geometry">
            <mxPoint x="3" y="-14" as="offset" />
          </mxGeometry>
        </mxCell>
        <mxCell id="nWM1yLNaq_5bOoscvzO5-16" style="edgeStyle=orthogonalEdgeStyle;rounded=0;orthogonalLoop=1;jettySize=auto;html=1;" parent="1" source="nWM1yLNaq_5bOoscvzO5-9" target="frMeNEFfwjuMo3mBpww0-15" edge="1">
          <mxGeometry relative="1" as="geometry">
            <Array as="points">
              <mxPoint x="950" y="630" />
              <mxPoint x="770" y="630" />
            </Array>
          </mxGeometry>
        </mxCell>
        <mxCell id="nWM1yLNaq_5bOoscvzO5-17" value="Xử lý lương thưởng" style="edgeLabel;html=1;align=center;verticalAlign=middle;resizable=0;points=[];" parent="nWM1yLNaq_5bOoscvzO5-16" vertex="1" connectable="0">
          <mxGeometry x="0.0793" y="1" relative="1" as="geometry">
            <mxPoint y="-11" as="offset" />
          </mxGeometry>
        </mxCell>
        <mxCell id="nWM1yLNaq_5bOoscvzO5-19" style="edgeStyle=orthogonalEdgeStyle;rounded=0;orthogonalLoop=1;jettySize=auto;html=1;" parent="1" source="nWM1yLNaq_5bOoscvzO5-9" target="frMeNEFfwjuMo3mBpww0-15" edge="1">
          <mxGeometry relative="1" as="geometry">
            <Array as="points">
              <mxPoint x="980" y="700" />
              <mxPoint x="980" y="600" />
            </Array>
          </mxGeometry>
        </mxCell>
        <mxCell id="nWM1yLNaq_5bOoscvzO5-20" value="Tạo báo cáo tài chính" style="edgeLabel;html=1;align=center;verticalAlign=middle;resizable=0;points=[];" parent="nWM1yLNaq_5bOoscvzO5-19" vertex="1" connectable="0">
          <mxGeometry x="0.2522" y="-3" relative="1" as="geometry">
            <mxPoint x="-30" y="-7" as="offset" />
          </mxGeometry>
        </mxCell>
        <mxCell id="nWM1yLNaq_5bOoscvzO5-21" style="edgeStyle=orthogonalEdgeStyle;rounded=0;orthogonalLoop=1;jettySize=auto;html=1;" parent="1" source="nWM1yLNaq_5bOoscvzO5-9" target="frMeNEFfwjuMo3mBpww0-15" edge="1">
          <mxGeometry relative="1" as="geometry">
            <Array as="points">
              <mxPoint x="1010" y="730" />
              <mxPoint x="1010" y="570" />
            </Array>
          </mxGeometry>
        </mxCell>
        <mxCell id="nWM1yLNaq_5bOoscvzO5-22" value="Phân tích hiệu quả kinh doanh" style="edgeLabel;html=1;align=center;verticalAlign=middle;resizable=0;points=[];" parent="nWM1yLNaq_5bOoscvzO5-21" vertex="1" connectable="0">
          <mxGeometry x="0.3438" y="-1" relative="1" as="geometry">
            <mxPoint x="-54" y="-9" as="offset" />
          </mxGeometry>
        </mxCell>
        <mxCell id="1NJ5WVEYGRyoX9_osyBo-15" style="edgeStyle=orthogonalEdgeStyle;rounded=0;orthogonalLoop=1;jettySize=auto;html=1;" parent="1" source="nWM1yLNaq_5bOoscvzO5-9" target="frMeNEFfwjuMo3mBpww0-15" edge="1">
          <mxGeometry relative="1" as="geometry">
            <Array as="points">
              <mxPoint x="920" y="660" />
              <mxPoint x="750" y="660" />
            </Array>
          </mxGeometry>
        </mxCell>
        <mxCell id="1NJ5WVEYGRyoX9_osyBo-16" value="Đơn giá bán" style="edgeLabel;html=1;align=center;verticalAlign=middle;resizable=0;points=[];" parent="1NJ5WVEYGRyoX9_osyBo-15" vertex="1" connectable="0">
          <mxGeometry x="-0.0798" y="-2" relative="1" as="geometry">
            <mxPoint x="35" y="-8" as="offset" />
          </mxGeometry>
        </mxCell>
        <mxCell id="nWM1yLNaq_5bOoscvzO5-9" value="&lt;b&gt;Bộ phận quản lý&lt;/b&gt;" style="rounded=0;whiteSpace=wrap;html=1;" parent="1" vertex="1">
          <mxGeometry x="840" y="690" width="120" height="50" as="geometry" />
        </mxCell>
        <mxCell id="nWM1yLNaq_5bOoscvzO5-10" style="edgeStyle=orthogonalEdgeStyle;rounded=0;orthogonalLoop=1;jettySize=auto;html=1;" parent="1" source="frMeNEFfwjuMo3mBpww0-15" target="nWM1yLNaq_5bOoscvzO5-9" edge="1">
          <mxGeometry relative="1" as="geometry">
            <Array as="points">
              <mxPoint x="730" y="700" />
            </Array>
          </mxGeometry>
        </mxCell>
        <mxCell id="nWM1yLNaq_5bOoscvzO5-11" value="Báo cáo tồn kho" style="edgeLabel;html=1;align=center;verticalAlign=middle;resizable=0;points=[];" parent="nWM1yLNaq_5bOoscvzO5-10" vertex="1" connectable="0">
          <mxGeometry x="-0.0155" y="-2" relative="1" as="geometry">
            <mxPoint x="42" y="-12" as="offset" />
          </mxGeometry>
        </mxCell>
        <mxCell id="nWM1yLNaq_5bOoscvzO5-12" style="edgeStyle=orthogonalEdgeStyle;rounded=0;orthogonalLoop=1;jettySize=auto;html=1;" parent="1" source="frMeNEFfwjuMo3mBpww0-15" target="nWM1yLNaq_5bOoscvzO5-9" edge="1">
          <mxGeometry relative="1" as="geometry">
            <mxPoint x="709.9999999999998" y="720" as="targetPoint" />
            <Array as="points">
              <mxPoint x="710" y="730" />
            </Array>
          </mxGeometry>
        </mxCell>
        <mxCell id="nWM1yLNaq_5bOoscvzO5-13" value="Báo cáo doanh thu" style="edgeLabel;html=1;align=center;verticalAlign=middle;resizable=0;points=[];" parent="nWM1yLNaq_5bOoscvzO5-12" vertex="1" connectable="0">
          <mxGeometry x="0.3082" y="2" relative="1" as="geometry">
            <mxPoint x="27" y="-8" as="offset" />
          </mxGeometry>
        </mxCell>
        <mxCell id="nWM1yLNaq_5bOoscvzO5-14" style="edgeStyle=orthogonalEdgeStyle;rounded=0;orthogonalLoop=1;jettySize=auto;html=1;" parent="1" source="frMeNEFfwjuMo3mBpww0-15" target="nWM1yLNaq_5bOoscvzO5-9" edge="1">
          <mxGeometry relative="1" as="geometry">
            <Array as="points">
              <mxPoint x="690" y="760" />
              <mxPoint x="900" y="760" />
            </Array>
          </mxGeometry>
        </mxCell>
        <mxCell id="nWM1yLNaq_5bOoscvzO5-15" value="Đơn giá nhập hàng" style="edgeLabel;html=1;align=center;verticalAlign=middle;resizable=0;points=[];" parent="nWM1yLNaq_5bOoscvzO5-14" vertex="1" connectable="0">
          <mxGeometry x="0.249" y="2" relative="1" as="geometry">
            <mxPoint x="3" y="-8" as="offset" />
          </mxGeometry>
        </mxCell>
        <mxCell id="nWM1yLNaq_5bOoscvzO5-31" style="edgeStyle=orthogonalEdgeStyle;rounded=0;orthogonalLoop=1;jettySize=auto;html=1;" parent="1" source="nWM1yLNaq_5bOoscvzO5-23" target="frMeNEFfwjuMo3mBpww0-17" edge="1">
          <mxGeometry relative="1" as="geometry">
            <Array as="points">
              <mxPoint x="592" y="217.5" />
            </Array>
          </mxGeometry>
        </mxCell>
        <mxCell id="nWM1yLNaq_5bOoscvzO5-32" value="Thông tin tra cứu" style="edgeLabel;html=1;align=center;verticalAlign=middle;resizable=0;points=[];" parent="nWM1yLNaq_5bOoscvzO5-31" vertex="1" connectable="0">
          <mxGeometry x="-0.3149" y="1" relative="1" as="geometry">
            <mxPoint x="64" y="-9" as="offset" />
          </mxGeometry>
        </mxCell>
        <mxCell id="nWM1yLNaq_5bOoscvzO5-23" value="" style="html=1;dashed=0;whiteSpace=wrap;shape=mxgraph.dfd.dataStoreID;align=left;spacingLeft=3;points=[[0,0],[0.5,0],[1,0],[0,0.5],[1,0.5],[0,1],[0.5,1],[1,1]];" parent="1" vertex="1">
          <mxGeometry x="542.5" y="172.5" width="100" height="30" as="geometry" />
        </mxCell>
        <mxCell id="nWM1yLNaq_5bOoscvzO5-24" value="Nhà cung&lt;div&gt;cấp&lt;/div&gt;" style="text;html=1;align=center;verticalAlign=middle;whiteSpace=wrap;rounded=0;" parent="1" vertex="1">
          <mxGeometry x="572.5" y="172.5" width="60" height="30" as="geometry" />
        </mxCell>
        <mxCell id="nWM1yLNaq_5bOoscvzO5-25" style="edgeStyle=orthogonalEdgeStyle;rounded=0;orthogonalLoop=1;jettySize=auto;html=1;" parent="1" source="frMeNEFfwjuMo3mBpww0-17" target="nWM1yLNaq_5bOoscvzO5-23" edge="1">
          <mxGeometry relative="1" as="geometry">
            <Array as="points">
              <mxPoint x="720" y="187.5" />
              <mxPoint x="720" y="187.5" />
            </Array>
          </mxGeometry>
        </mxCell>
        <mxCell id="nWM1yLNaq_5bOoscvzO5-30" value="Lịch sử giao dịch" style="edgeLabel;html=1;align=center;verticalAlign=middle;resizable=0;points=[];" parent="nWM1yLNaq_5bOoscvzO5-25" vertex="1" connectable="0">
          <mxGeometry x="-0.1367" y="-1" relative="1" as="geometry">
            <mxPoint x="-21" y="-7" as="offset" />
          </mxGeometry>
        </mxCell>
        <mxCell id="nWM1yLNaq_5bOoscvzO5-33" style="edgeStyle=orthogonalEdgeStyle;rounded=0;orthogonalLoop=1;jettySize=auto;html=1;" parent="1" source="frMeNEFfwjuMo3mBpww0-17" target="nWM1yLNaq_5bOoscvzO5-23" edge="1">
          <mxGeometry relative="1" as="geometry">
            <Array as="points">
              <mxPoint x="592" y="157.5" />
            </Array>
          </mxGeometry>
        </mxCell>
        <mxCell id="nWM1yLNaq_5bOoscvzO5-34" value="Cập nhật thông tin" style="edgeLabel;html=1;align=center;verticalAlign=middle;resizable=0;points=[];" parent="nWM1yLNaq_5bOoscvzO5-33" vertex="1" connectable="0">
          <mxGeometry x="0.1914" y="1" relative="1" as="geometry">
            <mxPoint x="44" y="-16" as="offset" />
          </mxGeometry>
        </mxCell>
        <mxCell id="nWM1yLNaq_5bOoscvzO5-44" style="edgeStyle=orthogonalEdgeStyle;rounded=0;orthogonalLoop=1;jettySize=auto;html=1;" parent="1" source="frMeNEFfwjuMo3mBpww0-21" target="frMeNEFfwjuMo3mBpww0-15" edge="1">
          <mxGeometry relative="1" as="geometry">
            <Array as="points">
              <mxPoint x="450" y="580" />
            </Array>
          </mxGeometry>
        </mxCell>
        <mxCell id="nWM1yLNaq_5bOoscvzO5-45" value="Tạo báo cáo nhân sự" style="edgeLabel;html=1;align=center;verticalAlign=middle;resizable=0;points=[];" parent="nWM1yLNaq_5bOoscvzO5-44" vertex="1" connectable="0">
          <mxGeometry x="0.068" y="-1" relative="1" as="geometry">
            <mxPoint x="-4" y="-11" as="offset" />
          </mxGeometry>
        </mxCell>
        <mxCell id="JK4CWT-u_it-27RJsuB0-3" style="edgeStyle=orthogonalEdgeStyle;rounded=0;orthogonalLoop=1;jettySize=auto;html=1;" parent="1" source="nWM1yLNaq_5bOoscvzO5-38" target="frMeNEFfwjuMo3mBpww0-21" edge="1">
          <mxGeometry relative="1" as="geometry">
            <Array as="points">
              <mxPoint x="435" y="730" />
              <mxPoint x="435" y="730" />
            </Array>
          </mxGeometry>
        </mxCell>
        <mxCell id="nWM1yLNaq_5bOoscvzO5-38" value="" style="html=1;dashed=0;whiteSpace=wrap;shape=mxgraph.dfd.dataStoreID;align=left;spacingLeft=3;points=[[0,0],[0.5,0],[1,0],[0,0.5],[1,0.5],[0,1],[0.5,1],[1,1]];" parent="1" vertex="1">
          <mxGeometry x="374.97" y="740" width="120" height="30" as="geometry" />
        </mxCell>
        <mxCell id="nWM1yLNaq_5bOoscvzO5-43" style="edgeStyle=orthogonalEdgeStyle;rounded=0;orthogonalLoop=1;jettySize=auto;html=1;" parent="1" source="JK4CWT-u_it-27RJsuB0-1" target="frMeNEFfwjuMo3mBpww0-21" edge="1">
          <mxGeometry relative="1" as="geometry">
            <Array as="points">
              <mxPoint x="545" y="795" />
              <mxPoint x="545" y="670" />
            </Array>
          </mxGeometry>
        </mxCell>
        <mxCell id="nWM1yLNaq_5bOoscvzO5-48" value="Thông tin&lt;div&gt;hiệu suất nhân viên&lt;/div&gt;" style="edgeLabel;html=1;align=center;verticalAlign=middle;resizable=0;points=[];" parent="nWM1yLNaq_5bOoscvzO5-43" vertex="1" connectable="0">
          <mxGeometry x="-0.0253" y="1" relative="1" as="geometry">
            <mxPoint x="1" y="-1" as="offset" />
          </mxGeometry>
        </mxCell>
        <mxCell id="nWM1yLNaq_5bOoscvzO5-39" value="Nhân viên" style="text;html=1;align=center;verticalAlign=middle;whiteSpace=wrap;rounded=0;" parent="1" vertex="1">
          <mxGeometry x="404.97" y="740" width="70" height="30" as="geometry" />
        </mxCell>
        <mxCell id="nWM1yLNaq_5bOoscvzO5-46" style="edgeStyle=orthogonalEdgeStyle;rounded=0;orthogonalLoop=1;jettySize=auto;html=1;" parent="1" source="frMeNEFfwjuMo3mBpww0-15" target="frMeNEFfwjuMo3mBpww0-21" edge="1">
          <mxGeometry relative="1" as="geometry">
            <Array as="points">
              <mxPoint x="420" y="560" />
            </Array>
          </mxGeometry>
        </mxCell>
        <mxCell id="nWM1yLNaq_5bOoscvzO5-47" value="Thanh toán khấu trừ" style="edgeLabel;html=1;align=center;verticalAlign=middle;resizable=0;points=[];" parent="nWM1yLNaq_5bOoscvzO5-46" vertex="1" connectable="0">
          <mxGeometry x="-0.1844" y="-2" relative="1" as="geometry">
            <mxPoint x="2" y="-8" as="offset" />
          </mxGeometry>
        </mxCell>
        <mxCell id="2QfK-ii52q8--LfC2cZZ-5" style="edgeStyle=orthogonalEdgeStyle;rounded=0;orthogonalLoop=1;jettySize=auto;html=1;" parent="1" source="frMeNEFfwjuMo3mBpww0-13" target="frMeNEFfwjuMo3mBpww0-19" edge="1">
          <mxGeometry relative="1" as="geometry">
            <Array as="points">
              <mxPoint x="340" y="350" />
              <mxPoint x="340" y="350" />
            </Array>
          </mxGeometry>
        </mxCell>
        <mxCell id="2QfK-ii52q8--LfC2cZZ-6" value="Chương trình&lt;div&gt;khuyến mãi&lt;/div&gt;" style="edgeLabel;html=1;align=center;verticalAlign=middle;resizable=0;points=[];" parent="2QfK-ii52q8--LfC2cZZ-5" vertex="1" connectable="0">
          <mxGeometry x="0.0152" y="1" relative="1" as="geometry">
            <mxPoint y="-16" as="offset" />
          </mxGeometry>
        </mxCell>
        <mxCell id="2QfK-ii52q8--LfC2cZZ-9" style="edgeStyle=orthogonalEdgeStyle;rounded=0;orthogonalLoop=1;jettySize=auto;html=1;" parent="1" source="frMeNEFfwjuMo3mBpww0-19" target="frMeNEFfwjuMo3mBpww0-13" edge="1">
          <mxGeometry relative="1" as="geometry">
            <Array as="points">
              <mxPoint x="350" y="390" />
              <mxPoint x="350" y="390" />
            </Array>
          </mxGeometry>
        </mxCell>
        <mxCell id="2QfK-ii52q8--LfC2cZZ-13" value="Khách hàng&lt;div&gt;thân thiết&lt;/div&gt;" style="edgeLabel;html=1;align=center;verticalAlign=middle;resizable=0;points=[];" parent="2QfK-ii52q8--LfC2cZZ-9" vertex="1" connectable="0">
          <mxGeometry x="0.0152" y="1" relative="1" as="geometry">
            <mxPoint x="4" y="-15" as="offset" />
          </mxGeometry>
        </mxCell>
        <mxCell id="2QfK-ii52q8--LfC2cZZ-27" style="edgeStyle=orthogonalEdgeStyle;rounded=0;orthogonalLoop=1;jettySize=auto;html=1;" parent="1" source="frMeNEFfwjuMo3mBpww0-45" target="frMeNEFfwjuMo3mBpww0-1" edge="1">
          <mxGeometry relative="1" as="geometry">
            <Array as="points">
              <mxPoint x="780" y="390" />
              <mxPoint x="1000" y="390" />
            </Array>
          </mxGeometry>
        </mxCell>
        <mxCell id="2QfK-ii52q8--LfC2cZZ-28" value="Tình trạng, số lượng hàng hóa" style="edgeLabel;html=1;align=center;verticalAlign=middle;resizable=0;points=[];" parent="2QfK-ii52q8--LfC2cZZ-27" vertex="1" connectable="0">
          <mxGeometry x="-0.0302" relative="1" as="geometry">
            <mxPoint x="4" y="-10" as="offset" />
          </mxGeometry>
        </mxCell>
        <mxCell id="1NJ5WVEYGRyoX9_osyBo-4" style="edgeStyle=orthogonalEdgeStyle;rounded=0;orthogonalLoop=1;jettySize=auto;html=1;" parent="1" source="1NJ5WVEYGRyoX9_osyBo-1" target="frMeNEFfwjuMo3mBpww0-13" edge="1">
          <mxGeometry relative="1" as="geometry">
            <mxPoint x="444.97" y="469.9985714285714" as="sourcePoint" />
            <mxPoint x="484.9985714285715" y="389.97" as="targetPoint" />
            <Array as="points">
              <mxPoint x="450" y="490" />
            </Array>
          </mxGeometry>
        </mxCell>
        <mxCell id="1NJ5WVEYGRyoX9_osyBo-5" value="Xử lý đơn hàng" style="edgeLabel;html=1;align=center;verticalAlign=middle;resizable=0;points=[];" parent="1NJ5WVEYGRyoX9_osyBo-4" vertex="1" connectable="0">
          <mxGeometry x="-0.3537" y="2" relative="1" as="geometry">
            <mxPoint x="-11" y="-8" as="offset" />
          </mxGeometry>
        </mxCell>
        <mxCell id="1NJ5WVEYGRyoX9_osyBo-8" style="edgeStyle=orthogonalEdgeStyle;rounded=0;orthogonalLoop=1;jettySize=auto;html=1;" parent="1" source="1NJ5WVEYGRyoX9_osyBo-1" target="frMeNEFfwjuMo3mBpww0-19" edge="1">
          <mxGeometry relative="1" as="geometry">
            <Array as="points">
              <mxPoint x="240" y="430" />
              <mxPoint x="240" y="430" />
            </Array>
          </mxGeometry>
        </mxCell>
        <mxCell id="1NJ5WVEYGRyoX9_osyBo-9" value="Hỗ trợ khách hàng" style="edgeLabel;html=1;align=center;verticalAlign=middle;resizable=0;points=[];" parent="1NJ5WVEYGRyoX9_osyBo-8" vertex="1" connectable="0">
          <mxGeometry y="1" relative="1" as="geometry">
            <mxPoint x="1" as="offset" />
          </mxGeometry>
        </mxCell>
        <mxCell id="1NJ5WVEYGRyoX9_osyBo-10" style="edgeStyle=orthogonalEdgeStyle;rounded=0;orthogonalLoop=1;jettySize=auto;html=1;" parent="1" source="1NJ5WVEYGRyoX9_osyBo-1" target="frMeNEFfwjuMo3mBpww0-15" edge="1">
          <mxGeometry relative="1" as="geometry">
            <Array as="points">
              <mxPoint x="260" y="540" />
            </Array>
          </mxGeometry>
        </mxCell>
        <mxCell id="1NJ5WVEYGRyoX9_osyBo-11" value="Báo cáo bán hàng" style="edgeLabel;html=1;align=center;verticalAlign=middle;resizable=0;points=[];" parent="1NJ5WVEYGRyoX9_osyBo-10" vertex="1" connectable="0">
          <mxGeometry x="0.0543" relative="1" as="geometry">
            <mxPoint x="74" y="-10" as="offset" />
          </mxGeometry>
        </mxCell>
        <mxCell id="1NJ5WVEYGRyoX9_osyBo-1" value="&lt;font style=&quot;font-size: 13px;&quot;&gt;Bộ phận bán hàng&lt;/font&gt;" style="html=1;dashed=0;whiteSpace=wrap;fontStyle=1" parent="1" vertex="1">
          <mxGeometry x="180" y="470" width="160" height="40" as="geometry" />
        </mxCell>
        <mxCell id="1NJ5WVEYGRyoX9_osyBo-13" style="edgeStyle=orthogonalEdgeStyle;rounded=0;orthogonalLoop=1;jettySize=auto;html=1;" parent="1" source="frMeNEFfwjuMo3mBpww0-13" target="1NJ5WVEYGRyoX9_osyBo-1" edge="1">
          <mxGeometry relative="1" as="geometry">
            <Array as="points">
              <mxPoint x="430" y="430" />
              <mxPoint x="300" y="430" />
            </Array>
          </mxGeometry>
        </mxCell>
        <mxCell id="1NJ5WVEYGRyoX9_osyBo-14" value="Nhận đơn hàng" style="edgeLabel;html=1;align=center;verticalAlign=middle;resizable=0;points=[];" parent="1NJ5WVEYGRyoX9_osyBo-13" vertex="1" connectable="0">
          <mxGeometry x="0.0489" y="-1" relative="1" as="geometry">
            <mxPoint x="-1" y="-9" as="offset" />
          </mxGeometry>
        </mxCell>
        <mxCell id="1NJ5WVEYGRyoX9_osyBo-17" style="edgeStyle=orthogonalEdgeStyle;rounded=0;orthogonalLoop=1;jettySize=auto;html=1;" parent="1" source="frMeNEFfwjuMo3mBpww0-15" target="frMeNEFfwjuMo3mBpww0-1" edge="1">
          <mxGeometry relative="1" as="geometry">
            <Array as="points">
              <mxPoint x="760" y="430" />
              <mxPoint x="1040" y="430" />
            </Array>
          </mxGeometry>
        </mxCell>
        <mxCell id="1NJ5WVEYGRyoX9_osyBo-20" value="Phê duyệt ngân sách" style="edgeLabel;html=1;align=center;verticalAlign=middle;resizable=0;points=[];" parent="1NJ5WVEYGRyoX9_osyBo-17" vertex="1" connectable="0">
          <mxGeometry x="-0.0126" y="-1" relative="1" as="geometry">
            <mxPoint x="-12" y="-11" as="offset" />
          </mxGeometry>
        </mxCell>
        <mxCell id="JK4CWT-u_it-27RJsuB0-1" value="" style="html=1;dashed=0;whiteSpace=wrap;shape=mxgraph.dfd.dataStoreID;align=left;spacingLeft=3;points=[[0,0],[0.5,0],[1,0],[0,0.5],[1,0.5],[0,1],[0.5,1],[1,1]];" parent="1" vertex="1">
          <mxGeometry x="374.97" y="780" width="120" height="30" as="geometry" />
        </mxCell>
        <mxCell id="JK4CWT-u_it-27RJsuB0-2" value="Bảng chấm công" style="text;html=1;align=center;verticalAlign=middle;whiteSpace=wrap;rounded=0;" parent="1" vertex="1">
          <mxGeometry x="404.97" y="780" width="70" height="30" as="geometry" />
        </mxCell>
      </root>
    </mxGraphModel>
  </diagram>
</mxfile>
